<?xml version="1.0" standalone="no"?>
<!DOCTYPE svg PUBLIC "-//W3C//DTD SVG 20010904//EN"
 "http://www.w3.org/TR/2001/REC-SVG-20010904/DTD/svg10.dtd">
<svg version="1.0" xmlns="http://www.w3.org/2000/svg"
 width="400.000000pt" height="400.000000pt" viewBox="0 0 400.000000 400.000000"
 preserveAspectRatio="xMidYMid meet">
<metadata>
Created by potrace 1.11, written by Peter Selinger 2001-2013
</metadata>
<g transform="translate(0.000000,400.000000) scale(0.100000,-0.100000)"
fill="#000000" stroke="none">
<path d="M1190 3124 c0 -3 5 -14 10 -24 8 -16 7 -18 -4 -14 -19 7 -30 -30 -16
-56 11 -20 2 -27 -15 -11 -6 6 -17 0 -28 -15 -18 -23 -17 -24 3 -24 20 0 21
-1 4 -27 -9 -16 -32 -41 -50 -56 -32 -27 -34 -28 -34 -8 0 12 -4 21 -10 21 -5
0 -10 11 -10 25 0 14 5 25 11 25 5 0 7 5 4 11 -4 6 -14 8 -22 5 -8 -4 -31 3
-50 15 -39 24 -50 21 -33 -11 6 -12 9 -33 6 -46 l-7 -25 -33 36 c-30 31 -66
50 -51 26 3 -6 -8 -8 -29 -4 -19 3 -36 1 -40 -6 -5 -7 4 -11 24 -11 24 0 33
-5 37 -21 3 -11 16 -25 29 -30 19 -7 24 -16 24 -43 0 -19 -4 -37 -9 -41 -8 -5
-75 21 -148 57 -36 18 -38 1 -3 -17 31 -16 31 -17 14 -36 -11 -12 -25 -17 -38
-13 -15 3 -34 -5 -61 -26 -34 -27 -41 -29 -43 -15 -2 9 1 22 7 28 6 6 11 18
11 27 0 8 11 28 25 43 14 15 22 27 18 27 -19 -1 -36 -20 -58 -69 -13 -28 -26
-51 -29 -51 -5 0 2 66 11 95 3 11 11 23 17 27 6 4 7 10 3 14 -14 14 -56 -38
-62 -77 -7 -38 -25 -64 -25 -35 0 8 -5 37 -11 65 -10 46 -12 50 -39 49 -16 -1
-27 -5 -24 -10 3 -4 6 -31 8 -58 2 -53 -14 -68 -34 -30 -17 32 -61 50 -100 40
l-35 -8 30 -2 c22 -2 25 -4 10 -7 -38 -10 -68 -24 -62 -29 3 -3 15 0 27 6 26
14 38 6 21 -14 -7 -8 -10 -20 -6 -26 6 -10 18 -8 65 8 8 3 12 2 8 -3 -4 -4 6
-27 22 -51 17 -23 26 -45 21 -48 -5 -4 -42 6 -82 20 -85 31 -148 29 -180 -5
-14 -14 -16 -21 -6 -21 7 0 17 4 22 9 6 5 28 11 51 14 32 4 43 1 52 -14 22
-35 14 -46 -35 -54 -55 -8 -92 -30 -104 -61 -7 -21 -11 -22 -39 -12 -17 5 -34
7 -38 4 -3 -4 3 -9 15 -12 27 -7 38 -43 15 -46 -10 0 -24 0 -32 1 -8 2 -30 4
-48 5 l-32 3 2 -306 3 -306 28 -3 c19 -2 27 -9 27 -22 0 -10 4 -21 9 -24 4 -3
5 -25 1 -48 -6 -29 -5 -45 3 -50 7 -5 4 -7 -8 -6 -49 3 -60 -2 -62 -29 l-1
-28 18 23 c10 12 27 22 38 22 16 0 19 -6 16 -30 -2 -16 1 -30 6 -30 6 0 10 14
10 30 0 27 3 30 30 30 23 0 33 -6 39 -22 5 -13 7 -26 4 -30 -2 -5 5 -8 16 -8
17 0 20 5 15 30 -8 35 1 38 129 42 l88 3 7 -30 c11 -40 26 -38 30 3 3 32 4 32
60 33 31 1 72 0 90 -1 26 -1 35 3 39 19 5 18 22 5 121 -96 139 -141 152 -161
153 -233 1 -30 3 -47 6 -37 2 9 9 15 14 12 5 -4 9 -2 9 4 0 7 8 7 26 1 33 -13
54 -13 54 0 0 6 -13 10 -29 10 -17 0 -33 5 -37 12 -5 7 -3 8 6 3 10 -6 12 -4
7 8 -5 14 0 13 39 -3 38 -17 46 -18 50 -5 4 10 14 13 30 9 13 -4 31 -1 39 6 8
6 23 9 35 5 15 -5 20 -2 20 13 0 11 6 23 13 25 9 4 9 8 -2 15 -11 8 -4 13 28
23 35 10 41 16 37 33 -3 12 2 25 12 33 11 8 13 15 7 20 -6 5 -9 22 -7 38 2 17
3 67 2 113 -1 80 12 110 23 53 7 -36 64 -91 93 -91 36 0 37 29 4 57 -59 49
-76 132 -40 191 24 38 37 41 50 7 6 -15 17 -25 29 -25 11 0 25 -9 31 -19 20
-38 14 -168 -10 -213 -6 -10 -6 -19 -1 -22 5 -4 5 -22 1 -43 -5 -21 -5 -40 -1
-43 13 -9 20 -39 11 -45 -17 -10 -11 -44 9 -54 23 -13 46 -132 24 -124 -17 7
-17 -9 2 -33 8 -10 14 -28 14 -39 -1 -17 -2 -17 -6 -2 -5 19 -23 24 -23 6 0
-6 8 -21 19 -35 l18 -23 13 87 c7 48 10 97 7 107 -3 12 -5 7 -6 -15 -1 -25 -4
-31 -10 -20 -14 24 -24 90 -14 90 5 0 18 7 29 15 18 15 16 16 -24 13 -26 -2
-41 0 -39 7 2 5 10 10 18 11 8 0 43 14 79 32 47 23 68 28 77 20 22 -18 15 -38
-12 -38 -14 0 -25 -5 -25 -11 0 -7 12 -10 30 -7 29 4 35 -3 31 -37 0 -7 13 -9
35 -7 34 4 39 17 6 17 -11 0 -16 7 -14 19 2 10 -1 15 -7 12 -5 -3 -12 8 -16
24 -4 17 -15 36 -26 43 -39 24 -22 37 50 37 64 0 70 -2 74 -22 l4 -23 2 23 c1
16 7 22 25 22 31 0 43 17 18 24 -22 7 -45 52 -36 68 4 7 2 8 -4 4 -7 -4 -12
-18 -12 -32 0 -13 -4 -24 -10 -24 -5 0 -10 -7 -10 -15 0 -11 -13 -15 -53 -15
l-53 0 -18 61 c-10 33 -16 62 -14 65 8 7 76 -17 100 -35 17 -14 29 -17 39 -10
12 8 11 11 -4 20 -9 6 -15 15 -11 20 4 6 10 6 19 -1 9 -8 15 -8 20 0 3 5 20
10 36 10 l30 0 -2 219 c-1 175 -5 221 -15 225 -8 3 -14 13 -13 23 0 16 1 16 8
-1 14 -36 19 -2 14 89 -3 50 -5 107 -4 127 0 36 -1 37 -29 34 -29 -3 -40 8
-40 42 0 14 -8 16 -44 14 -34 -3 -48 1 -63 17 -11 12 -27 19 -35 16 -10 -4
-17 1 -21 14 -3 12 -1 21 4 21 5 0 9 11 9 25 0 33 -31 47 -95 43 -31 -2 -57 2
-63 8 -6 7 -17 14 -24 17 -26 9 25 36 57 30 17 -3 27 -2 23 2 -4 5 -3 14 3 22
9 10 3 13 -33 13 -34 0 -50 6 -68 24 -27 30 -21 56 15 56 15 0 24 4 20 10 -3
6 -2 10 4 10 5 0 13 9 16 20 4 11 11 17 17 14 6 -4 9 -1 6 6 -7 21 -50 20 -86
-2 -30 -18 -35 -19 -50 -5 -10 9 -30 14 -49 11 -32 -3 -32 -3 -26 29 3 17 11
42 19 53 13 21 10 34 -8 34 -4 0 -8 -9 -8 -19 0 -31 -17 -34 -25 -4 -9 36 -65
94 -65 67z m154 -179 c3 -8 1 -15 -4 -15 -6 0 -10 7 -10 15 0 8 2 15 4 15 2 0
6 -7 10 -15z m-317 -17 c-3 -8 -6 -5 -6 6 -1 11 2 17 5 13 3 -3 4 -12 1 -19z
m313 -15 c0 -12 -43 -53 -57 -53 -16 0 -16 2 -1 35 7 16 19 25 35 25 12 0 23
-3 23 -7z m-172 -62 c3 -8 -1 -12 -9 -9 -7 2 -15 10 -17 17 -3 8 1 12 9 9 7
-2 15 -10 17 -17z m-335 -68 c-7 -2 -19 -2 -25 0 -7 3 -2 5 12 5 14 0 19 -2
13 -5z m-42 -76 c-6 -6 -11 -7 -11 -2 0 5 -6 0 -14 -11 -21 -28 -27 -14 -10
24 13 31 15 33 30 17 13 -12 14 -19 5 -28z m799 -7 c0 -5 -5 -10 -11 -10 -5 0
-7 5 -4 10 3 6 8 10 11 10 2 0 4 -4 4 -10z m-1205 -62 c6 -4 -5 -8 -22 -8 -18
0 -33 4 -33 9 0 11 32 20 40 12 3 -3 10 -9 15 -13z m-100 -57 c11 -14 15 -21
8 -18 -6 4 -17 1 -25 -6 -7 -8 -24 -19 -37 -26 -19 -11 -26 -10 -39 2 -14 14
-13 18 3 43 11 17 20 23 24 15 5 -8 13 -7 27 3 10 8 19 14 19 13 0 -1 9 -13
20 -26z m250 19 c3 -5 1 -10 -4 -10 -6 0 -11 5 -11 10 0 6 2 10 4 10 3 0 8 -4
11 -10z m-298 -112 c-3 -8 -6 -5 -6 6 -1 11 2 17 5 13 3 -3 4 -12 1 -19z
m1580 -120 c-2 -13 -4 -5 -4 17 -1 22 1 32 4 23 2 -10 2 -28 0 -40z m-311 -95
c32 -57 37 -76 37 -127 -1 -40 5 -73 17 -96 16 -32 46 -217 37 -227 -12 -12
-58 87 -78 170 -5 21 -17 50 -26 64 -13 20 -17 48 -16 127 1 64 -4 113 -13
134 -21 52 1 28 42 -45z m-999 -235 c-3 -7 -5 -2 -5 12 0 14 2 19 5 13 2 -7 2
-19 0 -25z m1146 -119 c-4 -16 -8 -17 -14 -7 -13 19 -11 28 5 28 9 0 12 -7 9
-21z m-1196 -37 c-16 -3 -21 -14 -18 -37 1 -5 -6 -1 -14 9 -19 25 -19 36 0 36
8 0 15 5 15 11 0 8 6 7 17 -2 15 -13 15 -14 0 -17z m-89 -10 c19 -25 15 -32
-18 -32 -28 0 -30 -2 -30 -39 l0 -39 -47 -4 c-27 -3 -50 -3 -52 -2 -2 2 -7 25
-12 51 -5 26 -12 56 -15 66 -5 16 -1 18 34 12 25 -3 43 -2 47 6 10 15 77 2 93
-19z m137 18 c-3 -5 -11 -10 -16 -10 -6 0 -7 5 -4 10 3 6 11 10 16 10 6 0 7
-4 4 -10z m61 0 c8 0 14 -6 14 -13 0 -8 9 -22 20 -32 22 -20 27 -41 8 -28 -13
8 -18 9 -52 11 -14 2 -17 7 -12 26 4 18 1 28 -11 36 -17 11 -17 11 0 6 10 -3
25 -6 33 -6z m-450 -35 c19 -47 17 -55 -6 -25 -18 23 -27 60 -14 60 3 0 12
-16 20 -35z m61 -32 c-3 -10 -5 -4 -5 12 0 17 2 24 5 18 2 -7 2 -21 0 -30z
m181 -38 c10 -21 9 -25 -3 -25 -8 0 -15 4 -15 9 0 5 -3 16 -6 25 -10 26 12 18
24 -9z m-228 -27 c0 -4 -9 -8 -20 -8 -11 0 -20 5 -20 10 0 6 4 10 10 10 5 0 7
8 4 18 -5 14 -3 14 10 -2 9 -11 16 -23 16 -28z m57 10 c-3 -7 -5 -2 -5 12 0
14 2 19 5 13 2 -7 2 -19 0 -25z m1618 -68 c13 -5 14 -9 5 -9 -8 0 -24 4 -35 9
-13 5 -14 9 -5 9 8 0 24 -4 35 -9z m-858 -222 c-3 -8 -6 -5 -6 6 -1 11 2 17 5
13 3 -3 4 -12 1 -19z"/>
<path d="M1080 2998 c0 -20 1 -21 20 -3 11 10 20 20 20 22 0 1 -9 3 -20 3 -14
0 -20 -7 -20 -22z"/>
<path d="M1050 3001 c0 -5 5 -13 10 -16 6 -3 10 -2 10 4 0 5 -4 13 -10 16 -5
3 -10 2 -10 -4z"/>
<path d="M395 2921 c-6 -11 42 -27 52 -17 8 8 3 12 -24 20 -12 4 -24 2 -28 -3z"/>
<path d="M2147 2804 c-4 -4 -2 -13 4 -21 9 -10 8 -13 -5 -13 -9 0 -16 -4 -16
-8 0 -4 -16 -6 -35 -4 -34 4 -65 -10 -65 -30 0 -6 6 -5 14 1 24 20 70 10 74
-16 3 -20 -1 -21 -35 -18 -21 2 -42 4 -48 6 -5 1 -17 -1 -26 -5 -11 -5 -26 1
-44 18 -32 30 -38 31 -54 12 -9 -11 -9 -15 1 -20 7 -3 -3 -3 -22 0 -28 4 -32
3 -17 -6 17 -11 47 -61 47 -79 0 -6 -7 -8 -16 -4 -12 4 -15 2 -12 -8 3 -8 11
-14 19 -14 8 0 14 -5 14 -10 0 -6 -17 -10 -37 -9 -37 1 -50 -9 -25 -19 10 -4
10 -6 0 -6 -15 -1 -17 -128 -7 -268 7 -79 7 -81 28 -70 12 7 24 16 27 21 4 5
18 9 33 9 14 0 24 3 21 7 -4 7 85 1 93 -5 2 -2 -10 -11 -27 -21 -22 -13 -28
-21 -20 -30 6 -7 17 -10 26 -7 12 5 12 7 1 14 -10 7 -9 9 3 9 18 0 29 -20 29
-51 0 -14 -7 -19 -29 -19 -40 0 -66 11 -51 20 7 4 10 14 8 21 -4 9 -10 4 -19
-14 -12 -26 -17 -28 -50 -23 -21 3 -44 9 -53 12 -14 5 -16 -13 -16 -168 0
-162 1 -174 20 -186 11 -7 20 -18 20 -25 0 -9 23 -11 89 -9 86 3 89 4 95 28 5
19 11 24 26 19 12 -4 20 -2 20 4 0 6 -9 11 -20 11 -13 0 -25 12 -35 36 -8 20
-13 40 -10 44 3 4 -3 7 -12 6 -9 0 -18 5 -21 13 -4 11 3 13 29 8 19 -4 28 -3
22 1 -10 6 -9 13 3 30 16 23 54 30 54 11 0 -6 7 -8 16 -5 8 3 13 2 10 -3 -3
-5 5 -12 19 -15 30 -8 33 -43 9 -101 l-15 -38 58 7 c175 20 169 20 187 -5 21
-31 21 -12 -1 32 -23 45 -54 84 -73 92 -8 3 8 6 36 6 33 1 56 6 64 16 7 8 19
15 27 15 9 0 13 -6 9 -15 -3 -8 0 -15 5 -15 7 0 9 -11 7 -25 -3 -13 0 -26 6
-28 7 -2 6 -10 -4 -22 -11 -14 -12 -19 -2 -22 6 -3 12 -14 12 -26 1 -45 22
-57 99 -57 l72 0 -3 28 c-2 22 -9 28 -38 32 -24 4 -34 10 -31 20 2 8 4 20 5
27 3 20 16 28 16 11 0 -12 12 -17 45 -20 38 -3 45 0 45 14 0 10 5 18 10 18 6
0 10 -9 10 -19 0 -10 8 -23 18 -27 9 -4 120 -9 246 -11 153 -2 234 -7 243 -15
8 -6 37 -10 66 -10 37 2 48 -1 37 -8 -11 -7 8 -10 63 -10 43 0 76 3 74 8 -3 4
55 6 129 4 105 -2 134 0 134 10 0 11 2 11 9 0 5 -9 23 -12 52 -9 36 3 40 5 22
11 -27 10 -31 46 -5 47 9 0 49 0 89 -1 41 -1 74 3 78 9 4 7 -5 12 -22 12 -24
2 -25 2 -5 6 17 3 21 9 17 24 -4 11 -2 19 4 19 7 0 11 48 10 143 0 78 -3 136
-6 130 -2 -7 -18 -13 -34 -13 -20 0 -27 4 -23 14 3 8 -2 16 -13 19 -16 4 -15
6 5 12 12 4 22 11 22 16 0 5 7 9 15 9 8 0 15 4 15 9 0 6 -12 6 -29 1 -23 -6
-31 -5 -35 7 -4 9 -13 13 -21 9 -13 -5 -12 -1 2 19 13 18 24 24 41 20 14 -4
21 -2 18 4 -3 5 0 12 6 14 7 3 -1 6 -18 6 -17 1 -43 -8 -57 -19 -14 -11 -28
-17 -31 -12 -10 17 6 47 37 71 18 13 23 20 12 16 -29 -12 -77 -8 -87 7 -5 8
-8 -1 -8 -24 0 -21 -4 -38 -10 -38 -5 0 -10 9 -10 19 0 11 -10 27 -21 35 -18
12 -27 13 -52 3 -30 -13 -39 -23 -53 -62 -8 -21 -7 -22 -19 49 -3 21 -9 35
-12 32 -4 -3 -12 3 -20 14 -20 28 -33 25 -33 -8 0 -37 -10 -46 -26 -24 -12 16
-13 16 -14 -3 -1 -19 -1 -19 -14 -2 -8 10 -20 17 -28 16 -7 -1 -26 3 -41 9
-16 7 -36 12 -45 12 -14 0 -14 2 -3 9 9 6 10 14 4 25 -8 15 -11 14 -21 -9 -15
-32 -30 -32 -38 0 -3 14 -10 25 -16 25 -5 0 -6 9 -3 20 7 22 -5 26 -23 8 -10
-10 -15 -10 -22 2 -8 12 -10 10 -10 -7 0 -35 -13 -28 -33 17 -19 44 -22 47
-31 24 -3 -8 -2 -12 4 -9 11 7 26 -43 15 -53 -4 -4 -10 -1 -12 6 -3 6 -12 12
-20 12 -9 0 -13 6 -9 15 3 8 1 15 -4 15 -5 0 -7 7 -4 15 6 16 -11 21 -20 6 -3
-5 -17 -8 -31 -8 -27 0 -45 22 -45 57 0 17 -4 20 -20 15 -11 -3 -35 -1 -54 6
-28 10 -32 15 -21 26 8 7 18 13 24 13 21 0 11 16 -11 17 -17 1 -30 -10 -51
-43 -16 -24 -32 -44 -36 -44 -4 0 -6 30 -4 68 2 43 0 60 -5 47 -9 -19 -9 -19
-22 4 -9 18 -14 21 -21 10 -13 -22 -20 -4 -10 24 6 15 6 29 2 32 -5 3 -11 -2
-15 -10 -3 -8 -12 -12 -21 -9 -8 3 -15 1 -15 -5 0 -6 -7 -8 -16 -4 -12 4 -14
0 -8 -21 9 -37 -1 -32 -20 9 -20 41 -41 48 -26 9 10 -26 4 -70 -11 -90 -5 -6
-20 -9 -34 -6 -30 5 -34 -13 -5 -21 31 -8 24 -27 -10 -27 -20 0 -30 5 -30 15
0 19 -24 19 -40 0 -7 -8 -16 -12 -21 -9 -5 3 -9 0 -9 -5 0 -14 27 -14 35 -1
12 20 27 10 23 -15 -3 -14 -1 -25 4 -25 5 0 4 -6 -1 -12 -55 -68 -85 -86 -141
-84 -30 1 -36 5 -41 31 -4 23 -8 26 -13 14 -4 -10 -6 -25 -4 -34 2 -10 -5 -22
-15 -29 -14 -9 -20 -8 -28 7 -6 9 -17 17 -25 17 -23 0 -8 17 21 22 13 3 26 0
29 -6 2 -6 3 -1 3 12 -1 15 -8 22 -22 22 -35 0 -45 15 -47 71 -3 52 -2 54 22
51 14 -2 35 -13 48 -25 18 -16 22 -17 22 -5 0 9 -7 21 -15 28 -8 7 -13 16 -10
20 8 12 -15 24 -50 27 -56 4 -70 -4 -96 -59 -13 -29 -27 -55 -30 -58 -3 -3 -9
-15 -13 -27 -4 -13 -12 -23 -18 -23 -13 0 -2 64 12 68 6 2 10 39 10 83 0 68 2
79 18 79 16 1 16 1 -1 11 -13 8 -22 7 -32 -1 -12 -10 -16 -8 -23 11 -9 22 -9
22 -17 -7 l-8 -29 -11 28 c-7 15 -15 24 -19 21z m218 -114 c-3 -5 -14 -10 -23
-10 -15 0 -15 2 -2 10 20 13 33 13 25 0z m-259 -27 c-7 -7 -26 7 -26 19 0 6 6
6 15 -2 9 -7 13 -15 11 -17z m764 13 c0 -8 -4 -17 -9 -21 -12 -7 -24 12 -16
25 9 15 25 12 25 -4z m-50 -17 c0 -6 -4 -7 -10 -4 -5 3 -10 11 -10 16 0 6 5 7
10 4 6 -3 10 -11 10 -16z m-755 -39 c-3 -5 -15 -10 -26 -10 -11 0 -17 5 -14
10 3 6 15 10 26 10 11 0 17 -4 14 -10z m260 -54 c22 9 26 -12 5 -31 -25 -22
-39 -13 -32 22 3 16 7 23 9 16 2 -7 10 -10 18 -7z m-174 -38 c-4 -12 -18 -23
-30 -25 -21 -3 -21 -2 -7 13 9 8 16 20 16 25 0 5 7 9 15 9 11 0 12 -6 6 -22z
m64 -27 c-8 -14 -25 -14 -25 0 0 5 5 7 10 4 6 -3 10 -1 10 6 0 7 3 10 6 6 3
-3 3 -10 -1 -16z m1257 -88 c39 -4 42 -7 30 -29 -6 -11 -11 -13 -16 -5 -4 6
-18 11 -31 11 -14 0 -29 8 -35 19 -14 28 -12 35 6 21 8 -8 29 -15 46 -17z
m-1312 7 c0 -5 -4 -10 -9 -10 -6 0 -13 5 -16 10 -3 6 1 10 9 10 9 0 16 -4 16
-10z m-52 -39 c12 -7 12 -13 -1 -36 -8 -16 -17 -23 -21 -17 -3 6 -2 13 4 17
15 9 12 25 -5 25 -8 0 -15 -9 -15 -20 0 -11 -4 -20 -10 -20 -5 0 -10 6 -10 13
0 8 -3 7 -10 -3 -5 -8 -11 -12 -14 -9 -8 8 24 50 34 44 5 -3 11 -1 15 5 7 12
16 12 33 1z m-128 -39 c0 -13 -7 -17 -27 -16 -41 1 -45 3 -37 15 4 8 9 7 14
-2 6 -9 12 -9 25 4 21 21 25 21 25 -1z m1715 -12 c3 -5 2 -10 -4 -10 -5 0 -13
5 -16 10 -3 6 -2 10 4 10 5 0 13 -4 16 -10z m-1461 -8 c3 -5 -1 -9 -9 -9 -8 0
-15 4 -15 9 0 4 4 8 9 8 6 0 12 -4 15 -8z m-309 -32 c0 -8 -8 -14 -17 -14 -10
1 -18 -4 -18 -12 0 -8 -4 -14 -10 -14 -5 0 -10 13 -10 28 0 24 4 28 28 27 17
0 27 -5 27 -15z m155 2 c0 -5 -13 -9 -30 -10 -16 0 -30 4 -30 9 0 5 14 9 30 9
17 0 30 -4 30 -8z m170 -72 c11 -11 20 -29 20 -40 0 -11 5 -20 10 -20 6 0 10
-4 10 -10 0 -12 -40 -13 -58 -2 -16 11 -27 92 -12 92 5 0 19 -9 30 -20z m-96
-56 c3 -8 2 -12 -4 -9 -6 3 -10 10 -10 16 0 14 7 11 14 -7z m211 -14 c4 -6 -5
-10 -19 -10 -14 0 -26 5 -26 10 0 6 9 10 19 10 11 0 23 -4 26 -10z m100 -26
l40 -34 -60 26 c-57 24 -91 45 -52 31 9 -4 17 -2 17 3 0 17 14 11 55 -26z
m1522 -16 c-3 -8 -6 -5 -6 6 -1 11 2 17 5 13 3 -3 4 -12 1 -19z m-1721 -130
c17 -7 16 -8 -3 -4 -15 3 -23 -1 -23 -9 0 -8 9 -15 20 -17 18 -3 18 -4 -4 -14
-22 -10 -23 -9 -24 40 -1 33 2 44 7 32 4 -11 16 -23 27 -28z m-186 2 c0 -5
-12 -10 -26 -10 -14 0 -23 4 -19 10 3 6 15 10 26 10 10 0 19 -4 19 -10z m130
0 c0 -5 -7 -10 -16 -10 -8 0 -12 5 -9 10 3 6 10 10 16 10 5 0 9 -4 9 -10z
m180 0 c0 -5 -15 -10 -32 -10 -25 0 -29 3 -18 10 20 13 50 13 50 0z m45 0 c3
-5 -1 -10 -9 -10 -9 0 -16 5 -16 10 0 6 4 10 9 10 6 0 13 -4 16 -10z m299 -42
c15 -24 4 -30 -37 -23 -33 6 -36 11 -28 43 3 11 56 -6 65 -20z m1106 -38 c0
-12 -8 -12 -35 0 -18 8 -17 9 8 9 15 1 27 -3 27 -9z m-520 -41 c0 -20 -24 -26
-35 -9 -4 6 -4 17 -1 25 7 20 36 7 36 -16z m321 -26 c13 -16 12 -17 -3 -4 -17
13 -22 21 -14 21 2 0 10 -8 17 -17z"/>
<path d="M3290 1860 c0 -5 5 -10 10 -10 6 0 10 5 10 10 0 6 -4 10 -10 10 -5 0
-10 -4 -10 -10z"/>
<path d="M2559 2563 c-13 -16 -12 -17 4 -4 16 13 21 21 13 21 -2 0 -10 -8 -17
-17z"/>
<path d="M1800 2558 c0 -4 4 -8 9 -8 6 0 12 4 15 8 3 5 -1 9 -9 9 -8 0 -15 -4
-15 -9z"/>
<path d="M1375 1989 c-9 -13 3 -109 15 -129 7 -11 12 -12 20 -4 12 12 -3 64
-19 64 -5 0 -7 18 -4 40 6 39 1 50 -12 29z"/>
<path d="M2110 1960 c0 -5 5 -10 10 -10 6 0 10 5 10 10 0 6 -4 10 -10 10 -5 0
-10 -4 -10 -10z"/>
<path d="M2115 1867 c-4 -10 -5 -21 -1 -24 10 -10 18 4 13 24 -4 17 -4 17 -12
0z"/>
<path d="M3845 1840 c3 -5 11 -10 16 -10 6 0 7 5 4 10 -3 6 -11 10 -16 10 -6
0 -7 -4 -4 -10z"/>
<path d="M2155 1820 c3 -5 8 -10 11 -10 2 0 4 5 4 10 0 6 -5 10 -11 10 -5 0
-7 -4 -4 -10z"/>
<path d="M3200 1800 c0 -5 5 -10 11 -10 5 0 7 5 4 10 -3 6 -8 10 -11 10 -2 0
-4 -4 -4 -10z"/>
<path d="M2840 1780 c0 -5 5 -10 10 -10 6 0 10 5 10 10 0 6 -4 10 -10 10 -5 0
-10 -4 -10 -10z"/>
<path d="M2928 1783 c7 -3 16 -2 19 1 4 3 -2 6 -13 5 -11 0 -14 -3 -6 -6z"/>
<path d="M2485 1770 c3 -5 11 -10 16 -10 6 0 7 5 4 10 -3 6 -11 10 -16 10 -6
0 -7 -4 -4 -10z"/>
<path d="M30 1760 c-9 -6 -10 -10 -3 -10 6 0 15 5 18 10 8 12 4 12 -15 0z"/>
<path d="M2265 1760 c-3 -5 -3 -15 1 -21 6 -11 23 6 24 24 0 10 -18 9 -25 -3z"/>
<path d="M2375 1760 c-3 -5 1 -10 9 -10 9 0 16 5 16 10 0 6 -4 10 -9 10 -6 0
-13 -4 -16 -10z"/>
<path d="M2419 1694 c-11 -30 -3 -46 11 -24 10 16 13 50 5 50 -3 0 -10 -12
-16 -26z"/>
<path d="M399 1599 c-11 -6 -71 -12 -259 -25 -126 -8 -140 -12 -140 -45 0 -33
-1 -32 49 -19 103 27 214 51 281 60 41 5 89 14 105 18 l30 9 -27 5 c-15 3 -32
2 -39 -3z"/>
<path d="M2581 1574 c0 -11 3 -14 6 -6 3 7 2 16 -1 19 -3 4 -6 -2 -5 -13z"/>
<path d="M2854 1521 c4 -56 3 -61 -10 -50 -14 11 -13 7 1 -26 10 -22 19 -57
19 -77 2 -59 13 -54 19 9 6 53 -13 186 -28 201 -3 3 -3 -22 -1 -57z"/>
<path d="M1760 1566 c0 -2 7 -6 15 -10 8 -3 15 -1 15 4 0 6 -7 10 -15 10 -8 0
-15 -2 -15 -4z"/>
<path d="M2830 1542 c6 -13 14 -21 18 -18 3 4 -2 14 -12 24 -18 16 -18 16 -6
-6z"/>
<path d="M1640 1540 c0 -5 5 -10 11 -10 5 0 7 5 4 10 -3 6 -8 10 -11 10 -2 0
-4 -4 -4 -10z"/>
<path d="M1737 1450 c-13 -15 -14 -20 -3 -20 7 0 16 9 19 20 3 11 4 20 3 20
-1 0 -9 -9 -19 -20z"/>
<path d="M2574 1431 c5 -8 56 -3 56 5 0 2 -14 4 -31 4 -16 0 -28 -4 -25 -9z"/>
<path d="M1654 1421 c3 -5 15 -7 26 -4 28 7 25 13 -6 13 -14 0 -23 -4 -20 -9z"/>
<path d="M2840 1190 c8 -5 28 -10 44 -10 39 0 30 6 -19 13 -27 4 -35 3 -25 -3z"/>
<path d="M2970 901 c0 -6 5 -13 10 -16 6 -3 10 1 10 9 0 9 -4 16 -10 16 -5 0
-10 -4 -10 -9z"/>
<path d="M3450 331 c0 -5 5 -13 10 -16 6 -3 10 -2 10 4 0 5 -4 13 -10 16 -5 3
-10 2 -10 -4z"/>
</g>
</svg>
